<svg xmlns="http://www.w3.org/2000/svg"  viewBox="0 0 32 32" width="32px" height="32px" baseProfile="basic"><path fill="none" stroke="#000" stroke-linecap="round" stroke-linejoin="round" stroke-miterlimit="10" stroke-width="2" d="M24.521,25.989c-5.68,1.348-11.361,1.348-17.041,0c-0.722-0.171-1.297-0.746-1.468-1.468c-1.348-5.68-1.348-11.361,0-17.041 c0.171-0.722,0.746-1.297,1.468-1.468c5.68-1.348,11.361-1.348,17.041,0c0.722,0.171,1.297,0.746,1.468,1.468 c1.348,5.68,1.348,11.361,0,17.041C25.817,25.242,25.243,25.817,24.521,25.989z"/><path fill="none" stroke="#000" stroke-linecap="round" stroke-linejoin="round" stroke-miterlimit="10" stroke-width="2" d="M15.104,27c-0.293-2.016-0.493-3.95-0.352-6.273c-1.022,0-1.99-0.14-2.753-0.477c-0.667-1.333-0.667-2.167,0-3.5 c1.005-0.416,1.866-0.5,2.765-0.5l0.041-0.928C15,11.826,17.544,9.5,21,9.5h0.5c0.705,1.216,0.752,2.739,0,4H21 c-1.105,0-1.867,0.904-1.867,2.008l0.002,0.73c1.479,0.012,2.219,0.142,3.493,0.493c0.135,1.215-0.234,2.759-1.051,3.519 c-0.696,0.263-1.287,0.342-2.362,0.342c0.124,2.108,0.006,4.142-0.326,6.197"/></svg>